<?xml version="1.0" encoding="UTF-8" standalone="no"?>
<svg
   xmlns:dc="http://purl.org/dc/elements/1.1/"
   xmlns:cc="http://creativecommons.org/ns#"
   xmlns:rdf="http://www.w3.org/1999/02/22-rdf-syntax-ns#"
   xmlns:svg="http://www.w3.org/2000/svg"
   xmlns="http://www.w3.org/2000/svg"
   viewBox="0 0 269.42667 211.06667"
   height="211.06667"
   width="269.42667"
   xml:space="preserve"
   id="svg2"
   version="1.1"><metadata
     id="metadata8"><rdf:RDF><cc:Work
         rdf:about=""><dc:format>image/svg+xml</dc:format><dc:type
           rdf:resource="http://purl.org/dc/dcmitype/StillImage" /></cc:Work></rdf:RDF></metadata><defs
     id="defs6" /><g
     transform="matrix(1.3333333,0,0,-1.3333333,0,211.06667)"
     id="g10"><g
       transform="scale(0.1)"
       id="g12"><path
         id="path14"
         style="fill:#00adef;fill-opacity:1;fill-rule:nonzero;stroke:none"
         d="m 1321.8,926.117 c -11.65,-20.703 -27.65,-38.191 -48.04,-52.484 -20.38,-14.293 -44.25,-25.074 -71.61,-32.356 -27.37,-7.293 -57.07,-10.925 -89.09,-10.925 -32.61,0 -62.74,3.632 -90.39,10.914 -27.654,7.269 -51.389,18.035 -71.178,32.316 -19.808,14.254 -35.242,31.719 -46.297,52.398 -11.062,20.661 -16.582,44.391 -16.582,71.188 0,20.362 5.371,41.922 16.149,64.622 10.769,22.71 30.136,48.61 58.086,77.73 7.554,-6.99 14.984,-14.56 22.265,-22.7 7.27,-8.17 13.535,-16.6 18.787,-25.34 5.23,-8.73 8.86,-17.9 10.91,-27.51 2.04,-9.6 1.89,-19.07 -0.43,-28.38 -2.93,-8.16 -4.97,-15 -6.12,-20.52 -1.17,-5.55 -1.75,-11.5 -1.75,-17.902 0,-24.469 9.9,-43.668 29.7,-57.652 19.79,-13.965 45.42,-20.961 76.85,-20.961 33.19,0 58.81,7.726 76.87,23.172 18.03,15.453 27.07,33.964 27.07,55.562 0,22.161 -7.57,40.531 -22.7,55.101 -15.15,14.57 -34.07,27.56 -56.79,38.93 -22.7,11.36 -47.46,22.61 -74.23,33.68 -26.79,11.08 -51.53,24.34 -74.233,39.8 -22.715,15.44 -41.637,34.27 -56.766,56.42 -15.148,22.17 -22.715,50.44 -22.715,84.85 0,25.09 5.379,47.54 16.161,67.37 10.765,19.83 25.621,36.59 44.539,50.3 18.918,13.69 40.904,24.19 65.944,31.48 25.03,7.29 51.52,10.95 79.47,10.95 29.12,0 56.03,-3.65 80.8,-10.93 24.74,-7.3 46.28,-17.79 64.62,-31.49 18.34,-13.69 32.6,-30.46 42.8,-50.29 10.18,-19.82 15.28,-42.28 15.28,-67.34 0,-20.41 -5.83,-41.69 -17.47,-63.85 -11.65,-22.16 -27.66,-45.49 -48.03,-69.97 l -0.18,-0.13 -84.67,42.92 c 8.53,11.63 15.35,23.13 20.22,34.48 6.98,16.3 10.76,31.73 11.35,46.28 0,14.55 -2.33,26.94 -6.99,37.13 -4.66,10.17 -10.91,18.47 -18.77,24.88 -7.86,6.41 -16.89,11.06 -27.08,13.98 -10.2,2.91 -20.83,4.36 -31.88,4.36 -23.88,0 -43.81,-5.81 -59.82,-17.47 -16.03,-11.64 -24.01,-29.39 -24.01,-53.26 0,-12.82 3.33,-24.17 10.03,-34.07 6.68,-9.9 15.87,-18.93 27.51,-27.07 11.64,-8.16 24.89,-15.73 39.74,-22.72 14.85,-6.98 30.7,-14.26 47.6,-21.82 l 79.48,-40.61 14.85,-7 c 25.02,-16.9 45.99,-37.45 62.89,-61.65 16.87,-24.19 25.31,-55.24 25.31,-93.143 0,-26.817 -5.81,-50.578 -17.46,-71.27 z m 153.82,99.673 c -7.35,20.85 -17.59,40.55 -30.7,59.08 -13.14,18.53 -28.79,34.93 -46.92,49.24 -18.16,14.27 -37.65,25.27 -58.5,33.01 l -32.43,8.1 33.59,16.21 c 28.56,17.76 51.73,40.73 69.51,68.93 17.75,28.18 26.63,56.56 26.63,85.15 0,35.51 -6.94,67.94 -20.85,97.29 -13.9,29.34 -34.17,54.45 -60.8,75.29 -26.65,20.86 -60.06,36.87 -100.2,48.08 -40.17,11.18 -86.13,16.79 -137.85,16.79 -20.85,0 -40.74,-0.39 -59.66,-1.15 -18.93,-0.77 -38.42,-2.32 -58.499,-4.64 -20.089,-2.31 -42.101,-5.21 -66.027,-8.68 -23.934,-3.48 -51.359,-7.93 -82.234,-13.33 V 725.773 h 162.17 l 44.6,21.582 c 16.98,-3.871 32.02,-21.757 44.01,-24.476 11.96,-2.699 22.96,-4.809 33.01,-6.367 10.04,-1.539 19.5,-2.5 28.39,-2.899 8.86,-0.383 18.71,-0.578 29.53,-0.578 45.55,0 86.49,7.524 122.79,22.59 36.29,15.059 67.18,34.348 92.67,57.918 25.49,23.547 44.97,50.191 58.5,79.93 13.5,29.711 20.27,59.644 20.27,89.773 0,20.844 -3.68,41.694 -11,62.544" /><path
         id="path16"
         style="fill:#00adef;fill-opacity:1;fill-rule:nonzero;stroke:none"
         d="M 741.582,1431.78 0,1576.68 c 9.23438,-33.65 20.2344,-66.52 33,-98.54 l 694.504,-76.74 152.625,-167.75 -138.547,198.13" /><path
         id="path18"
         style="fill:#00adef;fill-opacity:1;fill-rule:nonzero;stroke:none"
         d="M 720.234,1379.4 46.75,1445.59 c 13.6836,-31.03 29.0703,-61.15 46.0273,-90.22 l 612.6637,-3.34 -588.433,-36.14 c 21.148,-32.74 44.39,-64.1 69.469,-93.83 l 541.027,104.5 -522.5,-125.91 c 23.18,-25.93 47.863,-50.61 73.789,-73.79 l 471.301,173.32 -445.11,-195.91 c 32.086,-26.71 66.004,-51.27 101.493,-73.47 l 378.582,238.21 -345.125,-258.24 c 35.488,-20.297 72.484,-38.305 110.722,-53.825 L 814.133,1241.57 597.34,939.402 c 32.277,-11.132 65.34,-20.558 99.062,-28.16 L 852.105,1233.65 720.234,1379.4" /><path
         id="path20"
         style="fill:#231f20;fill-opacity:1;fill-rule:nonzero;stroke:none"
         d="m 399.879,451.73 c 9.625,0 18.199,1.29 25.73,3.911 7.555,2.578 13.844,6.218 18.934,10.91 5.062,4.687 8.891,10.129 11.488,16.379 2.602,6.242 3.907,13 3.907,20.281 0,13.269 -5.067,24.309 -15.215,33.16 -10.137,8.82 -25.09,13.258 -44.844,13.258 -7.024,0 -14.508,-0.199 -22.422,-0.598 -7.93,-0.383 -15.414,-0.972 -22.437,-1.75 V 451.73 Z m 7.797,-137.269 c 3.117,-0.539 5.914,-0.852 8.383,-0.981 2.468,-0.128 5.527,-0.199 9.171,-0.199 6.758,0 13.2,1.438 19.313,4.309 6.094,2.859 11.488,6.781 16.176,11.742 4.687,4.949 8.379,10.758 11.109,17.418 2.735,6.648 4.11,13.762 4.11,21.332 0,9.648 -2.02,18.059 -6.043,25.227 -4.043,7.191 -9.442,13.113 -16.2,17.82 -6.757,4.68 -14.816,8.152 -24.172,10.359 -9.355,2.223 -19.246,3.332 -29.644,3.332 H 355.02 V 289.879 h -37.04 v 280.019 c 14.817,2.864 28.661,5 41.528,6.442 12.887,1.422 26.328,2.14 40.371,2.14 16.641,0 31.133,-1.941 43.484,-5.851 12.356,-3.891 22.617,-9.219 30.817,-15.981 8.179,-6.769 14.293,-14.769 18.332,-23.988 4.023,-9.23 6.043,-19.051 6.043,-29.449 0,-4.68 -0.664,-9.691 -1.953,-15.02 -1.309,-5.332 -3.2,-10.589 -5.664,-15.793 -2.465,-5.199 -5.512,-10 -9.157,-14.429 -3.64,-4.418 -7.801,-8.188 -12.484,-11.309 l -11.313,-5.461 10.934,-2.73 c 14.816,-7.028 26.242,-16.309 34.305,-27.887 8.066,-11.562 12.09,-25.152 12.09,-40.75 0,-10.133 -2,-20.223 -6.043,-30.223 -4.028,-10.019 -9.938,-19.039 -17.735,-27.109 -7.801,-8.059 -17.305,-14.621 -28.484,-19.691 -11.176,-5.079 -23.778,-7.618 -37.821,-7.618 -7.55,0 -15.597,0.469 -24.175,1.379 -8.594,0.91 -18.731,2.801 -30.418,5.649 3.89,6.64 8.828,12.383 14.816,17.269 5.985,4.864 13.387,6.524 22.223,4.973" /><path
         id="path22"
         style="fill:#231f20;fill-opacity:1;fill-rule:nonzero;stroke:none"
         d="m 569.527,573.41 h 37.442 V 317.969 h 118.562 l -0.398,-28.09 H 569.527 V 573.41" /><path
         id="path24"
         style="fill:#231f20;fill-opacity:1;fill-rule:nonzero;stroke:none"
         d="m 880.758,284.422 c -16.641,0 -31.461,2.66 -44.465,8 -13.012,5.328 -23.992,12.789 -32.969,22.418 -8.953,9.621 -15.781,21.191 -20.461,34.699 -4.687,13.543 -7.023,28.492 -7.023,44.859 V 573.41 H 812.5 V 388.16 c 0,-23.148 6.176,-41.531 18.531,-55.191 12.332,-13.637 28.91,-20.469 49.727,-20.469 20.797,0 37.359,6.832 49.711,20.469 12.355,13.66 18.531,32.043 18.531,55.191 v 185.25 h 36.66 V 394.398 c 0,-16.367 -2.535,-31.316 -7.601,-44.859 -5.067,-13.508 -12.219,-25.078 -21.461,-34.699 -9.227,-9.629 -20.27,-17.09 -33.149,-22.418 -12.867,-5.34 -27.09,-8 -42.691,-8" /><path
         id="path26"
         style="fill:#231f20;fill-opacity:1;fill-rule:nonzero;stroke:none"
         d="M 1191.18,452.129 V 424.82 h -96.33 c 2.85,7.539 6.83,13.981 11.89,19.309 5.07,5.32 12.29,8 21.64,8 z M 1042.97,573.41 h 161.47 V 545.34 H 1080.03 V 317.969 h 130.25 v -28.09 H 1042.97 V 573.41" /><path
         id="path28"
         style="fill:#00adef;fill-opacity:1;fill-rule:nonzero;stroke:none"
         d="m 1396.31,550.012 c -7.29,0 -13.71,-1.114 -19.31,-3.313 -5.59,-2.219 -10.33,-5.269 -14.22,-9.16 -3.91,-3.91 -6.84,-8.398 -8.78,-13.457 -1.95,-5.07 -2.93,-10.473 -2.93,-16.184 0,-10.148 3.25,-18.789 9.76,-25.949 6.48,-7.148 14.68,-13.711 24.57,-19.687 9.87,-5.981 20.46,-11.891 31.77,-17.75 11.32,-5.84 21.91,-12.532 31.8,-20.09 9.87,-7.531 18.07,-16.371 24.56,-26.512 6.5,-10.129 9.75,-22.621 9.75,-37.441 0,-9.617 -2.02,-18.969 -6.04,-28.078 -4.03,-9.11 -10.01,-17.161 -17.94,-24.18 -7.93,-7.02 -17.62,-12.621 -29.06,-16.77 -11.44,-4.16 -24.58,-6.25 -39.39,-6.25 -5.45,0 -11.56,0.34 -18.34,0.981 -6.75,0.656 -13.64,1.637 -20.66,2.937 -7.02,1.282 -14.17,3.11 -21.44,5.461 -7.29,2.328 -14.18,5.071 -20.67,8.18 l 10.13,25.352 c 11.69,-5.204 23.47,-8.981 35.29,-11.313 11.84,-2.328 22.31,-3.508 31.4,-3.508 18.46,0 32.77,4.598 42.9,13.828 10.14,9.2 15.22,20.563 15.22,34.082 0,11.161 -3.26,20.43 -9.75,27.829 -6.51,7.402 -14.58,14.089 -24.18,20.062 -9.64,5.969 -20.15,11.75 -31.59,17.328 -11.45,5.578 -21.98,11.942 -31.6,19.078 -9.62,7.141 -17.69,15.653 -24.18,25.5 -6.5,9.871 -9.75,22.082 -9.75,36.614 0,9.609 1.89,18.699 5.66,27.257 3.76,8.582 9.16,16.102 16.18,22.602 7.02,6.469 15.34,11.539 24.96,15.187 9.62,3.622 20.28,5.442 31.99,5.442 11.17,0 22.42,-0.91 33.73,-2.699 11.31,-1.782 23.6,-4.731 36.86,-8.84 l -10.53,-25.121 c -11.2,3.379 -21.53,5.66 -31.01,6.832 -9.5,1.168 -17.88,1.75 -25.16,1.75" /><path
         id="path30"
         style="fill:#00adef;fill-opacity:1;fill-rule:nonzero;stroke:none"
         d="m 1651.75,458.75 101.01,-168.871 h -44.85 l -75.66,135.34 -2.74,7.011 -3.51,-7.011 -30.8,-40.571 c -1.82,3.911 -2.93,8.512 -3.31,13.84 -0.4,5.344 -0.13,10.981 0.78,16.981 0.91,5.972 2.53,11.953 4.87,17.929 2.33,5.981 5.46,11.711 9.35,17.161 l 90.88,122.851 h 42.13 z M 1537.48,289.879 V 573.41 h 37.06 V 289.879 h -37.06" /><path
         id="path32"
         style="fill:#00adef;fill-opacity:1;fill-rule:nonzero;stroke:none"
         d="m 1973.89,573.41 h 40.95 l -83.45,-136.879 c -2.36,3.11 -4.49,6.559 -6.44,10.328 -1.96,3.762 -3.38,7.731 -4.3,11.891 -0.9,4.16 -1.1,8.512 -0.57,13.07 0.51,4.551 2.06,9.16 4.67,13.84 z m -53.43,-152.101 v -131.43 h -36.27 v 120.519 l -97.11,163.012 h 42.12 l 91.26,-152.101" /><path
         id="path34"
         style="fill:#231f20;fill-opacity:1;fill-rule:nonzero;stroke:none"
         d="M 317.598,139.309 H 334.57 V 1.98828 H 317.598 V 139.309" /><path
         id="path36"
         style="fill:#231f20;fill-opacity:1;fill-rule:nonzero;stroke:none"
         d="m 402.676,139.309 h 31.742 l 58.41,-123.8285 h 4.633 V 139.309 h 16.758 V 1.98828 H 483.141 L 423.84,125.809 h -4.192 V 1.98828 H 402.676 V 139.309" /><path
         id="path38"
         style="fill:#231f20;fill-opacity:1;fill-rule:nonzero;stroke:none"
         d="m 582.559,139.309 h 31.742 l 58.41,-123.8285 h 4.633 V 139.309 h 16.758 V 1.98828 h -31.079 l -59.3,123.82072 h -4.192 V 1.98828 H 582.559 V 139.309" /><path
         id="path40"
         style="fill:#231f20;fill-opacity:1;fill-rule:nonzero;stroke:none"
         d="m 863.617,70.0586 c 0,37.1134 -7.949,57.7424 -42.773,57.7424 -35.051,0 -42.774,-20.43 -42.774,-57.7424 0,-37.5078 7.504,-56.5703 42.774,-56.5703 35.488,0 42.773,17.8711 42.773,56.5703 z m -102.949,0 c 0,45.2424 13,71.2424 60.176,71.2424 47.179,0 60.41,-25.602 60.41,-71.2424 C 881.254,22.8203 868.238,0 820.844,0 773.453,0 760.668,24.0117 760.668,70.0586" /><path
         id="path42"
         style="fill:#231f20;fill-opacity:1;fill-rule:nonzero;stroke:none"
         d="M 1062.43,139.309 1022.53,1.98828 H 984.613 L 944.727,139.309 h 17.617 L 997.398,15.4805 h 12.352 l 35.04,123.8285 h 17.64" /><path
         id="path44"
         style="fill:#231f20;fill-opacity:1;fill-rule:nonzero;stroke:none"
         d="m 1142.44,51 h 57.76 l -23.15,75.211 h -11.46 z m 10.37,88.309 h 37.02 l 41.9,-137.32072 h -16.76 L 1203.94,37.3008 H 1138.7 L 1127.67,1.98828 h -16.76 l 41.9,137.32072" /><path
         id="path46"
         style="fill:#231f20;fill-opacity:1;fill-rule:nonzero;stroke:none"
         d="m 1273.61,139.309 h 110.21 v -13.7 h -46.51 V 1.98828 h -16.74 V 125.609 h -46.96 v 13.7" /><path
         id="path48"
         style="fill:#231f20;fill-opacity:1;fill-rule:nonzero;stroke:none"
         d="m 1453.92,139.309 h 16.97 V 1.98828 h -16.97 V 139.309" /><path
         id="path50"
         style="fill:#231f20;fill-opacity:1;fill-rule:nonzero;stroke:none"
         d="m 1644.6,70.0586 c 0,37.1134 -7.93,57.7424 -42.77,57.7424 -35.06,0 -42.76,-20.43 -42.76,-57.7424 0,-37.5078 7.48,-56.5703 42.76,-56.5703 35.48,0 42.77,17.8711 42.77,56.5703 z m -102.95,0 c 0,45.2424 13,71.2424 60.18,71.2424 47.17,0 60.4,-25.602 60.4,-71.2424 C 1662.23,22.8203 1649.22,0 1601.83,0 c -47.4,0 -60.18,24.0117 -60.18,70.0586" /><path
         id="path52"
         style="fill:#231f20;fill-opacity:1;fill-rule:nonzero;stroke:none"
         d="m 1737.4,139.309 h 31.74 l 58.4,-123.8285 h 4.64 V 139.309 h 16.76 V 1.98828 h -31.08 l -59.3,123.82072 h -4.19 V 1.98828 H 1737.4 V 139.309" /><path
         id="path54"
         style="fill:#231f20;fill-opacity:1;fill-rule:nonzero;stroke:none"
         d="m 2016.04,124.621 c 0,0 -30.65,3.379 -43.44,3.379 -21.59,0 -33.07,-6.941 -33.07,-22.422 0,-17.8671 10.58,-20.8475 37.26,-26.1991 30.42,-6.1601 43.86,-12.8984 43.86,-36.9101 0,-30.3672 -18.51,-42.277394 -48.71,-42.277394 -18.07,0 -48.27,4.378904 -48.27,4.378904 l 1.76,12.69919 c 0,0 29.99,-3.5781 45.63,-3.5781 21.61,0 32.62,8.5274 32.62,27.5899 0,15.4804 -9.04,19.8398 -33.94,24.207 -31.53,6.1601 -47.4,12.9023 -47.4,39.0937 0,26.598 19.41,36.906 49.17,36.906 18.07,0 46.07,-3.968 46.07,-3.968 l -1.54,-12.899" /></g></g></svg>